#!OML:ASF H:\Martial Arts Walks\Project 1\Capture day 1\Session 1\male.ASF
:FULLY-SPECIFIED
:DEGREES
4227
root -1.58956 14.0654 3.35353 -357.447 20.6526 -351.404
lowerback 11.7637 -0.0153074 -11.9305
upperback -2.038 -1.84293 -0.525174
thorax -8.52839 -0.308311 6.5109
lowerneck -3.70183 -7.3753 -8.95879
upperneck 9.57186 -9.92109 6.56504
head 4.24201 -4.91835 2.92142
rclavicle -1.2188e-014 -4.37326e-015
rhumerus 13.3557 -9.91662 -89.6472
rradius 84.1372
rwrist -65.6301
rhand -27.9188 -417.503
rfingers 7.12502
rthumb -1.30749 992.522
lclavicle -1.2188e-014 -4.37326e-015
lhumerus -185.883 218.814 -70.0911
lradius 29.4485
lwrist -34.7977
lhand -44.8849 785.704
lfingers 7.12502
lthumb -17.6729 985.079
rfemur -59.5921 -20.2112 8.82796
rtibia 70.2271
rfoot -14.5244 -16.979
rtoes -30.2462
lfemur 5.54996 8.15931 -20.4507
ltibia 52.1386
lfoot -36.4781 34.1997
ltoes -17.0805
4228
root -1.61241 14.066 3.31645 -357.347 21.5737 -351.711
lowerback 12.3639 -0.181627 -11.6487
upperback -1.98747 -2.08356 -0.298396
thorax -8.76847 -0.418414 6.66427
lowerneck -3.63239 -7.4443 -9.21266
upperneck 9.03602 -9.99316 6.71846
head 4.09395 -4.95697 3.01244
rclavicle 1.67538e-014 2.26615e-014
rhumerus 14.0484 -9.94629 -89.0333
rradius 82.9225
rwrist -66.295
rhand -28.0208 -418.137
rfingers 7.12502
rthumb -1.40597 991.888
lclavicle 1.67538e-014 2.26615e-014
lhumerus -185.521 220.389 -70.1023
lradius 30.2385
lwrist -25.4491
lhand -42.6279 783.83
lfingers 7.12502
lthumb -15.5 986.771
rfemur -59.4641 -20.4489 8.90554
rtibia 70.0198
rfoot -14.9687 -16.4116
rtoes -32.4355
lfemur 4.02492 8.50756 -19.7413
ltibia 54.1656
lfoot -36.2187 33.8269
ltoes -16.3145
4229
root -1.64013 14.0698 3.27268 -357.174 22.5785 -352.117
lowerback 12.9272 -0.369742 -11.2459
upperback -1.91989 -2.31953 -0.0412115
thorax -8.97075 -0.534628 6.78447
lowerneck -3.60105 -7.54911 -9.41617
upperneck 8.38491 -10.1031 6.81538
head 3.91558 -5.01373 3.07628
rclavicle 7.57867e-015 1.31198e-014
rhumerus 15.0233 -9.80571 -88.4498
rradius 81.6694
rwrist -67.3137
rhand -28.2934 -419.258
rfingers 7.12502
rthumb -1.66926 990.768
lclavicle 7.57867e-015 1.31198e-014
lhumerus -184.902 221.872 -70.284
lradius 31.1484
lwrist -15.0536
lhand -40.1454 782.488
lfingers 7.12502
lthumb -13.1079 987.944
rfemur -59.3962 -20.6239 9.08122
rtibia 69.7521
rfoot -14.4325 -16.1512
rtoes -32.8592
lfemur 2.21005 9.02238 -18.8864
ltibia 56.4082
lfoot -35.9381 33.2282
ltoes -15.4433
4230
root -1.67082 14.0769 3.22394 -356.844 23.6253 -352.517
lowerback 13.3208 -0.583875 -10.8048
upperback -1.84368 -2.55484 0.220029
thorax -9.06706 -0.659723 6.88298
lowerneck -3.53241 -7.66142 -9.64745
upperneck 7.61169 -10.2235 6.95785
head 3.69949 -5.0747 3.16129
rclavicle -3.71976e-014 -1.70955e-014
rhumerus 16.2911 -9.38286 -87.8379
rradius 80.4833
rwrist -68.7048
rhand -28.317 -420.332
rfingers 7.12502
rthumb -1.69206 1170.3
lclavicle -3.71976e-014 -1.70955e-014
lhumerus -184.074 223.267 -70.6192
lradius 32.1524
lwrist -3.65169
lhand -37.3145 781.198
lfingers 7.12502
lthumb -10.3781 989.078
rfemur -59.4942 -20.7346 9.27164
rtibia 69.4506
rfoot -14.1089 -15.7747
rtoes -33.9084
lfemur -0.0373311 9.7845 -18.0692
ltibia 58.8155
lfoot -34.679 33.3772
ltoes -15.3951
